<?xml version="1.0" encoding="utf-8"?>
<!-- Generator: Adobe Illustrator 19.0.0, SVG Export Plug-In . SVG Version: 6.00 Build 0)  -->
<svg version="1.1" id="Layer_1" xmlns="http://www.w3.org/2000/svg" xmlns:xlink="http://www.w3.org/1999/xlink" x="0px" y="0px"
	 viewBox="378 146 500 501" style="enable-background:new 378 146 500 501;" xml:space="preserve">
<style type="text/css">
	.st0{fill:#EFEFEF;}
	.st1{fill:#B20000;}
	.st2{fill:#EFEFEF;stroke:#282828;stroke-miterlimit:10;}
	.st3{fill:#FFFFFF;}
</style>
<circle id="XMLID_1_" class="st0" cx="628" cy="397" r="250"/>
<circle id="XMLID_2_" class="st1" cx="628" cy="397" r="225"/>
<g id="XMLID_3_">
	<g id="XMLID_14_">
		<path id="XMLID_16_" class="st2" d="M649.5,550.5v-66h-63v-65h63v-66h-63v-65h63v-64h-63v-32.2C490.5,208.4,417,294,417,397.2
			s73.5,188.7,169.5,204.9v-51.6H649.5z"/>
		<path id="XMLID_15_" class="st2" d="M632.8,189.5c-11.2,0-23.3,1-34.3,2.8v32.2h63v64h-63v65h63v66h-63v65h63v66h-63v51.6
			c11,1.8,23,2.8,34.3,2.8c111.8,0,202.5-93,202.5-207.7S744.6,189.5,632.8,189.5z"/>
	</g>
	<g id="XMLID_7_">
		<path id="XMLID_12_" class="st2" d="M649.5,550.5v-66h-63v-65h63v-66h-63v-65h63v-64h-63v-32.2C490.5,208.4,417,294,417,397.2
			s73.5,188.7,169.5,204.9v-51.6H649.5z"/>
		<path id="XMLID_9_" class="st2" d="M632.8,189.5c-11.2,0-23.3,1-34.3,2.8v32.2h63v64h-63v65h63v66h-63v65h63v66h-63v51.6
			c11,1.8,23,2.8,34.3,2.8c111.8,0,202.5-93,202.5-207.7S744.6,189.5,632.8,189.5z"/>
	</g>
</g>
<path id="XMLID_11_" class="st1" d="M573.8,347.7c-0.1-24.8-20.6-44.8-45.7-44.7c-0.9,0-1.7,0-2.6,0.1c-48.9,2-87.8,41.8-87.5,90.4
	s39.6,88,88.5,89.5c-24.2-1.1-43.5-20.6-43.6-44.7c-0.1-24.9,20.2-45.1,45.4-45.3C553.5,392.8,573.9,372.6,573.8,347.7z"/>
<path id="XMLID_10_" class="st3" d="M896.5,146c-1.7,0-3.4,0-5.1,0.1c1.5-0.1,3.1-0.1,4.6-0.1C896.2,146,896.3,146,896.5,146z"/>
<path id="XMLID_13_" class="st3" d="M896.5,516c-0.2,0-0.3,0-0.5,0c-1.5,0-3.1,0-4.6-0.1C893.1,515.9,894.8,516,896.5,516z"/>
<path id="XMLID_4_" class="st1" d="M683.7,438.7c-0.1,24.8,20.1,45,45.2,45.2c0.9,0,1.7,0,2.6,0c48.9-1.5,88.2-40.9,88.4-89.5
	S781.2,306,732.3,304c24.1,1.3,43.2,21.1,43.1,45.1c-0.1,24.9-20.7,44.9-45.9,44.8S683.8,413.9,683.7,438.7z"/>
</svg>
